<?xml version="1.0" encoding="utf-8"?>
<!-- Generator: Adobe Illustrator 22.0.0, SVG Export Plug-In . SVG Version: 6.00 Build 0)  -->
<svg version="1.1" id="Layer_1" xmlns="http://www.w3.org/2000/svg" xmlns:xlink="http://www.w3.org/1999/xlink" x="0px" y="0px"
	 viewBox="0 0 3248.1 3254" style="enable-background:new 0 0 3248.1 3254;" xml:space="preserve">
<style type="text/css">
	.st0{fill:#EB3434;}
</style>
<path class="st0" d="M3180.9,1477.5L1764.5,61.2c-81.5-81.6-213.8-81.6-295.4,0L1175,355.3l373,373.1
	c86.7-29.3,186.1-9.6,255.2,59.5c69.4,69.6,89,169.8,59,256.8l359.6,359.6c87-30,187.4-10.6,256.9,59c97.1,97.1,97.1,254.4,0,351.5
	s-254.5,97.1-351.6,0c-73-73.1-91.1-180.4-54.1-270.4l-335.3-335.3v882.4c24.3,12,46.5,27.9,65.7,47c97.1,97.1,97.1,254.4,0,351.6
	c-97.1,97.1-254.5,97.1-351.5,0c-97.1-97.2-97.1-254.5,0-351.6c23.3-23.3,50.9-41.7,81.4-54.2v-890.7
	c-30.5-12.4-58.2-30.9-81.4-54.2c-73.6-73.5-91.3-181.4-53.6-271.8l-367.8-367.8L59.2,1470.9c-81.6,81.6-81.6,214,0,295.5
	l1416.4,1416.3c81.5,81.6,213.8,81.6,295.5,0l1409.8-1409.8C3262.4,1691.4,3262.4,1559.1,3180.9,1477.5"/>
</svg>
