<?xml version="1.0" encoding="iso-8859-1"?>
<!-- Generator: Adobe Illustrator 19.0.0, SVG Export Plug-In . SVG Version: 6.00 Build 0)  -->
<svg version="1.1" id="Capa_1" xmlns="http://www.w3.org/2000/svg" xmlns:xlink="http://www.w3.org/1999/xlink" x="0px" y="0px"
	 viewBox="0 0 512 512" style="enable-background:new 0 0 512 512;" xml:space="preserve">
<g>
	<polygon style="fill:#FF3D53;" points="149.476,194.5 255.998,133 149.476,71.5 42.955,133 	"/>
	<polygon style="fill:#83D8EF;" points="149.476,71.499 255.998,133 362.52,71.5 255.998,9.999 	"/>
	<polygon style="fill:#55D08F;" points="255.998,133 149.476,194.5 255.998,256 362.52,194.5 	"/>
	<g>
		<polygon style="fill:#FFBC44;" points="255.998,133 362.52,194.5 469.04,133 362.52,71.499 		"/>
		<polygon style="fill:#FFBC44;" points="149.476,317.501 149.476,194.5 42.955,133 42.955,256 81.328,278.155 		"/>
	</g>
	<polygon style="fill:#FF3D53;" points="149.476,194.5 149.476,317.501 255.998,379.001 255.998,256 	"/>
	<polygon style="fill:#83D8EF;" points="149.476,317.501 81.328,278.155 42.955,256 42.955,379.001 149.476,440.501 	"/>
	<polygon style="fill:#55D08F;" points="149.476,317.501 149.476,440.501 255.998,502.001 255.998,379.001 	"/>
	<polygon style="fill:#83D8EF;" points="255.998,256 255.998,379.001 362.52,317.501 362.52,194.5 	"/>
	<polygon style="fill:#FFBC44;" points="362.52,317.501 255.998,379.001 255.998,502.001 362.52,440.501 	"/>
	<polygon style="fill:#FF3D53;" points="362.52,317.501 362.52,440.501 469.04,379.001 469.04,256 431.965,277.405 	"/>
	<polygon style="fill:#55D08F;" points="362.52,317.501 431.965,277.405 469.04,256 469.04,133 362.52,194.5 	"/>
</g>
<path d="M431.963,197.403c-5.522,0-10,4.477-10,10v0.236c0,5.523,4.478,10,10,10s10-4.477,10-10v-0.236
	C441.963,201.881,437.486,197.403,431.963,197.403z"/>
<path d="M479.034,132.914c-0.003-0.409-0.027-0.817-0.081-1.226c-0.003-0.023-0.009-0.045-0.012-0.069
	c-0.052-0.368-0.128-0.734-0.222-1.1c-0.024-0.098-0.053-0.194-0.081-0.291c-0.085-0.294-0.185-0.584-0.298-0.873
	c-0.038-0.096-0.072-0.193-0.112-0.288c-0.155-0.361-0.326-0.718-0.527-1.066c-0.001-0.001-0.002-0.003-0.002-0.004
	c-0.201-0.349-0.426-0.675-0.661-0.99c-0.062-0.082-0.128-0.16-0.192-0.24c-0.193-0.243-0.395-0.475-0.607-0.695
	c-0.069-0.072-0.139-0.145-0.211-0.216c-0.27-0.263-0.549-0.513-0.842-0.741c-0.019-0.014-0.035-0.03-0.054-0.044
	c-0.327-0.251-0.668-0.476-1.02-0.683c-0.024-0.015-0.046-0.033-0.071-0.048l-213.042-123c-3.094-1.787-6.906-1.786-10,0
	l-213.043,123c-0.023,0.014-0.044,0.031-0.066,0.045c-0.355,0.208-0.699,0.435-1.027,0.688c-0.016,0.011-0.028,0.024-0.043,0.035
	c-0.297,0.231-0.58,0.484-0.852,0.751c-0.071,0.069-0.14,0.141-0.209,0.212c-0.213,0.222-0.416,0.455-0.609,0.699
	c-0.065,0.08-0.131,0.157-0.191,0.239c-0.235,0.314-0.459,0.642-0.661,0.99c-0.001,0.001-0.001,0.003-0.002,0.004
	c-0.201,0.349-0.372,0.706-0.526,1.066c-0.041,0.095-0.075,0.192-0.113,0.288c-0.113,0.289-0.213,0.579-0.298,0.873
	c-0.028,0.097-0.056,0.193-0.081,0.291c-0.094,0.364-0.17,0.73-0.221,1.098c-0.004,0.024-0.01,0.047-0.013,0.071
	c-0.054,0.408-0.078,0.817-0.081,1.225c0,0.029-0.006,0.057-0.006,0.085v246.001c0,3.573,1.906,6.874,5,8.66l213.043,123
	c0.025,0.015,0.053,0.024,0.078,0.038c0.354,0.201,0.719,0.384,1.099,0.541c0.025,0.011,0.052,0.018,0.077,0.028
	c0.341,0.138,0.691,0.254,1.05,0.354c0.101,0.027,0.2,0.052,0.3,0.077c0.295,0.072,0.594,0.131,0.898,0.177
	c0.104,0.016,0.206,0.035,0.309,0.047c0.391,0.046,0.786,0.077,1.189,0.077c0.402,0,0.798-0.031,1.189-0.077
	c0.103-0.012,0.206-0.031,0.309-0.047c0.305-0.046,0.604-0.104,0.899-0.177c0.1-0.025,0.199-0.05,0.3-0.077
	c0.358-0.1,0.709-0.217,1.05-0.354c0.025-0.01,0.052-0.018,0.077-0.028c0.38-0.157,0.745-0.34,1.099-0.541
	c0.025-0.014,0.053-0.023,0.078-0.038l213.042-123c3.094-1.786,5-5.087,5-8.66V133C479.04,132.971,479.035,132.943,479.034,132.914z
	 M431.965,226.37c-5.522,0-10,4.477-10,10v35.262l-49.445,28.547v-99.906l86.52-49.953v99.906l-17.075,9.858V236.37
	C441.965,230.847,437.488,226.37,431.965,226.37z M52.955,250.226V150.32l86.52,49.953v99.907L52.955,250.226z M149.477,83.047
	L235.998,133l-86.521,49.953L62.956,133L149.477,83.047z M449.04,133l-86.52,49.953L275.997,133l86.523-49.953L449.04,133z
	 M342.52,194.5l-86.522,49.954L169.477,194.5l86.521-49.953L342.52,194.5z M159.476,211.82l86.523,49.954v99.907l-86.523-49.954
	V211.82z M245.998,384.774v99.906l-86.523-49.954v-99.907L245.998,384.774z M265.998,384.774l86.522-49.954v99.907l-86.522,49.953
	V384.774z M265.998,361.68v-99.907l86.522-49.954v99.906L265.998,361.68z M255.998,21.546L342.52,71.5l-86.522,49.953L169.477,71.5
	L255.998,21.546z M52.955,273.32l18.373,10.608v35.262c0,5.523,4.478,10,10,10s10-4.477,10-10v-23.715l48.147,27.798v99.907
	l-86.52-49.953V273.32z M372.52,423.18v-99.907l86.52-49.953v99.907L372.52,423.18z"/>
<path d="M81.326,337.921c-5.522,0-10,4.477-10,10v0.236c0,5.523,4.478,10,10,10s10-4.477,10-10v-0.236
	C91.326,342.398,86.849,337.921,81.326,337.921z"/>
<g>
</g>
<g>
</g>
<g>
</g>
<g>
</g>
<g>
</g>
<g>
</g>
<g>
</g>
<g>
</g>
<g>
</g>
<g>
</g>
<g>
</g>
<g>
</g>
<g>
</g>
<g>
</g>
<g>
</g>
</svg>
