<?xml version="1.0" encoding="utf-8"?>
<!-- Generator: Adobe Illustrator 16.0.3, SVG Export Plug-In . SVG Version: 6.00 Build 0)  -->
<!DOCTYPE svg PUBLIC "-//W3C//DTD SVG 1.1//EN" "http://www.w3.org/Graphics/SVG/1.1/DTD/svg11.dtd">
<svg version="1.1" id="Capa_1" xmlns="http://www.w3.org/2000/svg" xmlns:xlink="http://www.w3.org/1999/xlink" x="0px" y="0px"
	 width="1608.368px" height="1213.352px" viewBox="329.676 1121.809 1608.368 1213.352"
	 enable-background="new 329.676 1121.809 1608.368 1213.352" xml:space="preserve">
<g>
	<defs>
		<rect id="SVGID_1_" x="329.676" y="1121.809" width="1608.368" height="1213.352"/>
	</defs>
	<clipPath id="SVGID_2_">
		<use xlink:href="#SVGID_1_"  overflow="visible"/>
	</clipPath>
	<g opacity="0.2" clip-path="url(#SVGID_2_)">
		<g>
			<path fill="#FCFCFC" d="M444.577,1488.811c11.555,0,20.911-9.375,20.911-20.925v-37.897h1237.114v198.135
				c0,11.568,9.355,20.941,20.906,20.941c11.564,0,20.912-9.373,20.912-20.941V1272c0-48.45-39.396-87.87-87.848-87.87H511.517
				c-48.454,0-87.855,39.42-87.855,87.87v195.886C423.661,1479.436,433.026,1488.811,444.577,1488.811L444.577,1488.811z
				 M511.517,1225.962h1145.056c25.367,0,46.029,20.652,46.029,46.038v116.156H465.488V1272
				C465.488,1246.615,486.136,1225.962,511.517,1225.962z"/>
			<path fill="#FCFCFC" d="M884.62,2463.066H511.517c-25.381,0-46.028-20.617-46.028-46.021v-860.022
				c0-11.551-9.356-20.906-20.911-20.906c-11.55,0-20.916,9.355-20.916,20.906v860.022c0,48.449,39.401,87.869,87.855,87.869H884.62
				c11.56,0,20.925-9.355,20.925-20.925C905.545,2472.422,896.179,2463.066,884.62,2463.066z"/>
			<path fill="#FCFCFC" d="M1751.03,1690.878h-705.389c-54.189,0-98.261,44.081-98.261,98.278v271.752
				c0,11.549,9.361,20.924,20.916,20.924c11.537,0,20.916-9.375,20.916-20.924v-140.346h818.259v590.375
				c0,31.096-25.313,56.444-56.441,56.444h-705.389c-31.115,0-56.429-25.35-56.429-56.444v-360.892
				c0-11.551-9.379-20.906-20.916-20.906c-11.555,0-20.916,9.355-20.916,20.906v360.892c0,54.196,44.081,98.276,98.26,98.276h705.39
				c54.191,0,98.271-44.08,98.271-98.276v-721.781C1849.301,1734.959,1805.223,1690.878,1751.03,1690.878L1751.03,1690.878z
				 M989.212,1878.713v-89.557c0-31.152,25.313-56.428,56.429-56.428h705.389c31.129,0,56.441,25.274,56.441,56.428v89.557H989.212z
				"/>
			<path fill="#FCFCFC" d="M551.835,1326.942h15.689c11.555,0,20.925-9.394,20.925-20.942c0-11.569-9.37-20.907-20.925-20.907
				h-15.689c-11.551,0-20.907,9.338-20.907,20.907C530.928,1317.549,540.284,1326.942,551.835,1326.942z"/>
			<path fill="#FCFCFC" d="M697.316,1326.942h15.708c11.55,0,20.905-9.394,20.905-20.942c0-11.569-9.355-20.907-20.905-20.907
				h-15.708c-11.547,0-20.935,9.338-20.935,20.907C676.382,1317.549,685.77,1326.942,697.316,1326.942z"/>
			<path fill="#FCFCFC" d="M842.784,1326.942H858.5c11.555,0,20.911-9.394,20.911-20.942c0-11.569-9.356-20.907-20.911-20.907
				h-15.716c-11.551,0-20.907,9.338-20.907,20.907C821.877,1317.549,831.233,1326.942,842.784,1326.942z"/>
			<path fill="#FCFCFC" d="M1644.678,2202.23h-88.057c-11.559,0-20.916,9.356-20.916,20.907c0,11.568,9.355,20.925,20.916,20.925
				h88.057c35.158,0,63.768-28.611,63.768-63.771v-88.775c0-35.141-28.607-63.754-63.768-63.754h-492.691
				c-35.149,0-63.756,28.613-63.756,63.754v88.775c0,35.16,28.607,63.771,63.756,63.771h315.482
				c11.568,0,20.926-9.355,20.926-20.925c0-11.551-9.357-20.907-20.926-20.907h-315.482c-12.084,0-21.92-9.826-21.92-21.939v-88.775
				c0-12.075,9.836-21.924,21.92-21.924h492.711c12.084,0,21.912,9.848,21.912,21.924v88.775
				C1666.61,2192.404,1656.782,2202.23,1644.678,2202.23L1644.678,2202.23z"/>
			<path fill="#FCFCFC" d="M643.571,1602.319h886.869c11.541,0,20.924-9.374,20.924-20.925s-9.383-20.926-20.924-20.926H643.571
				c-25.554,0-46.333,20.799-46.333,46.329v260.854c0,25.547,20.779,46.328,46.333,46.328H832c11.545,0,20.906-9.357,20.906-20.906
				c0-11.551-9.361-20.908-20.906-20.908H643.571c-2.489,0-4.506-2.031-4.506-4.514v-260.854
				C639.065,1604.35,641.083,1602.319,643.571,1602.319z"/>
			<path fill="#FCFCFC" d="M831.292,2002.666H618.149c-11.556,0-20.911,9.355-20.911,20.926c0,11.549,9.355,20.906,20.911,20.906
				h213.143c11.56,0,20.916-9.357,20.916-20.906C852.208,2012.021,842.852,2002.666,831.292,2002.666z"/>
			<path fill="#FCFCFC" d="M831.292,2159.457H618.149c-11.556,0-20.911,9.375-20.911,20.908c0,11.549,9.355,20.906,20.911,20.906
				h213.143c11.56,0,20.916-9.357,20.916-20.906C852.208,2168.832,842.852,2159.457,831.292,2159.457z"/>
		</g>
		<path fill="#FCFCFC" d="M1109.158,2424.645h578.372c11.551,0,20.916-9.338,20.916-20.871c0-11.549-9.365-20.924-20.916-20.924
			h-578.372c-11.556,0-20.93,9.375-20.93,20.924C1088.229,2415.307,1097.604,2424.645,1109.158,2424.645L1109.158,2424.645z"/>
	</g>
</g>
</svg>
