<?xml version="1.0" encoding="utf-8"?>
<!-- Generator: Adobe Illustrator 16.0.3, SVG Export Plug-In . SVG Version: 6.00 Build 0)  -->
<!DOCTYPE svg PUBLIC "-//W3C//DTD SVG 1.1//EN" "http://www.w3.org/Graphics/SVG/1.1/DTD/svg11.dtd">
<svg version="1.1" id="Capa_1" xmlns="http://www.w3.org/2000/svg" xmlns:xlink="http://www.w3.org/1999/xlink" x="0px" y="0px"
	 width="1516.7px" height="1934.164px" viewBox="273.633 753.681 1516.7 1934.164"
	 enable-background="new 273.633 753.681 1516.7 1934.164" xml:space="preserve">
<g>
	<g>
		<defs>
			<rect id="SVGID_1_" x="273.633" y="753.681" width="1516.7" height="1972.134"/>
		</defs>
		<clipPath id="SVGID_2_">
			<use xlink:href="#SVGID_1_"  overflow="visible"/>
		</clipPath>
		<g clip-path="url(#SVGID_2_)">
			<g>
				<defs>
					<polyline id="SVGID_3_" points="353.111,1794.5 1534.145,2700.829 2973.735,2321.631 3099.204,1697.884 3102.85,1655.352 
						1964.465,777.47 1942.44,760.658 1907.772,753.681 498.727,1123.729 					"/>
				</defs>
				<clipPath id="SVGID_4_">
					<use xlink:href="#SVGID_3_"  overflow="visible"/>
				</clipPath>
				<g clip-path="url(#SVGID_4_)">
					<path fill="#62ABC7" d="M1538.366,2679.847l-127.887,635.791l-571.305-448.364l127.364-633.195L1538.366,2679.847z"/>
					<path fill="#62ABC7" d="M1094.422,1598.313l-127.883,635.766l-571.845-445.771l127.883-635.765L1094.422,1598.313z"/>
					<path fill="#6EB732" d="M966.539,2234.077l-127.364,633.194l-571.326-448.355l126.845-630.609L966.539,2234.077z"/>
					<path fill="#F8D42C" d="M1666.249,2044.082l-127.883,635.766l-571.828-445.771l127.883-635.766L1666.249,2044.082z"/>
					<path fill="#348B2C" d="M309.435,2212.161l-41.587,206.755l571.326,448.355l41.586-206.754L309.435,2212.161z"/>
					<path fill="#EEAC14" d="M1496.561,1911.8l-127.885,635.765l169.689,132.282l127.883-635.765L1496.561,1911.8z"/>
					<path fill="#2182B4" d="M1147.815,2870.105L880.76,2660.518l-41.586,206.754l571.305,448.365l127.887-635.791l-169.689-132.281
						l-52.377,260.386C1300.811,2884.947,1209.606,2918.581,1147.815,2870.105z"/>
					<path fill="#348B2C" d="M3065.684,1664.083l-127.883,635.765l-699.729,189.994l127.883-635.765L3065.684,1664.083z"/>
					<path fill="#EEAC14" d="M2238.073,2489.843l-127.365,633.196l-700.229,192.6l127.889-635.791L2238.073,2489.843z"/>
					<path fill="#D32F31" d="M2937.801,2299.85l-126.846,630.608l-700.248,192.581l127.365-633.196L2937.801,2299.85z"/>
					<path fill="#D32F31" d="M2365.956,1854.078l-127.883,635.765l-699.707,190.004l127.883-635.765L2365.956,1854.078z"/>
					<path fill="#62ABC7" d="M2365.956,1854.078l-699.707,190.004l-571.827-445.771l699.711-189.994L2365.956,1854.078z"/>
					<path fill="#EB3535" d="M3065.684,1664.083l-699.729,189.995l-571.822-445.761l699.711-190.021L3065.684,1664.083z"/>
					<path fill="#F8D42C" d="M2493.844,1218.296l-699.711,190.021l-571.824-445.792l699.711-189.999L2493.844,1218.296z"/>
					<path fill="#6EB732" d="M1794.133,1408.317l-699.711,189.995l-571.846-445.771l699.733-190.017L1794.133,1408.317z"/>
					<path fill="#2182B4" d="M2029.977,1786.503l-514.822,139.786l151.096,117.793l699.707-190.004l-151.092-117.783
						L2029.977,1786.503z"/>
					<path fill="#D32F31" d="M2493.844,1218.296l-184.885,50.199l337.58,263.161c34.254,26.714,23.318,81.074-18.602,92.473
						l-413.074,112.166l151.092,117.783l699.711-189.995L2493.844,1218.296z"/>
					<path fill="#EEAC14" d="M2308.959,1268.495l184.885-50.199l-571.824-445.77l-184.889,50.204L2308.959,1268.495z"/>
					<path d="M3018.383,1899.254c21.393,4.303,42.26-9.554,46.566-30.968l39.51-196.426c0.027-0.142,0.02-0.281,0.045-0.423
						c0.566-3.026,0.787-6.105,0.654-9.149c-0.012-0.458-0.064-0.933-0.117-1.399c-0.07-1.072-0.213-2.142-0.375-3.192
						c-0.088-0.476-0.162-0.95-0.256-1.426c-0.254-1.302-0.576-2.612-0.967-3.88c-0.049-0.154-0.084-0.308-0.137-0.462
						c-0.457-1.442-1.025-2.873-1.662-4.245c-0.143-0.32-0.305-0.643-0.473-0.968c-0.51-1.06-1.09-2.111-1.719-3.132
						c-0.217-0.378-0.418-0.713-0.66-1.074c-0.682-1.047-1.412-2.072-2.209-3.062c-0.184-0.229-0.348-0.466-0.549-0.695
						c-0.99-1.197-2.051-2.323-3.203-3.409c-0.053-0.053-0.084-0.101-0.137-0.154c-0.193-0.185-0.436-0.334-0.625-0.519
						c-0.689-0.599-1.357-1.214-2.07-1.791L1946.327,741.34c-9.816-7.654-22.676-10.24-34.672-6.972L512.217,1114.369
						c-0.902,0.25-1.738,0.563-2.6,0.845c-0.25,0.097-0.532,0.146-0.783,0.237c-0.066,0.025-0.132,0.062-0.18,0.092
						c-1.487,0.55-2.899,1.184-4.276,1.905c-0.272,0.132-0.515,0.291-0.77,0.427c-1.122,0.607-2.19,1.268-3.225,1.975
						c-0.364,0.237-0.704,0.484-1.024,0.73c-0.969,0.699-1.914,1.442-2.799,2.226c-0.276,0.233-0.55,0.466-0.805,0.712
						c-1.122,1.021-2.195,2.116-3.176,3.27c-0.11,0.123-0.198,0.25-0.303,0.374c-0.854,1.021-1.654,2.103-2.397,3.202
						c-0.282,0.378-0.532,0.81-0.783,1.214c-0.559,0.91-1.1,1.838-1.601,2.797c-0.211,0.418-0.436,0.827-0.629,1.25
						c-1.32,2.753-2.305,5.674-2.93,8.688c-0.031,0.141-0.098,0.272-0.123,0.408l-153.88,765.013
						c-4.311,21.414,9.554,42.264,30.968,46.565c21.414,4.312,42.26-9.555,46.57-30.969l13.373-66.501l502.106,391.409
						l-109.883,546.273l-501.648-393.67l59.661-296.604c4.307-21.396-9.559-42.264-30.972-46.565
						c-21.414-4.312-42.26,9.571-46.566,30.968l-64.465,320.481c-2.943,14.641,2.6,29.692,14.354,38.896l1142.631,896.722
						c0.32,0.246,0.682,0.449,1.002,0.695c0.547,0.404,1.111,0.792,1.686,1.152c0.91,0.625,1.838,1.188,2.803,1.688
						c0.52,0.29,1.023,0.58,1.557,0.827c1.152,0.57,2.328,1.056,3.527,1.504c0.369,0.132,0.727,0.308,1.102,0.432
						c1.613,0.554,3.24,1.029,4.904,1.354c0.254,0.054,0.527,0.07,0.787,0.123c1.385,0.238,2.762,0.433,4.16,0.521
						c0.59,0.062,1.219,0.044,1.822,0.062c1.072,0.026,2.129,0.035,3.223-0.018c0.652-0.035,1.316-0.114,1.994-0.186
						c0.998-0.114,2.006-0.237,3-0.432c0.713-0.132,1.385-0.264,2.059-0.438c0.439-0.105,0.844-0.15,1.262-0.273l1400.482-385.171
						c14.396-3.949,25.328-15.687,28.275-30.326l178.83-889.05c4.307-21.413-9.555-42.255-30.967-46.565
						c-21.414-4.312-42.26,9.555-46.566,30.968l-47.164,234.477l-614.379,166.849l110.447-549.1l614.377-166.821l-26.891,133.673
						C2983.104,1874.102,2996.948,1894.943,3018.383,1899.254z M1213.569,1005.867l493.871,384.986l-604.322,164.107
						l-493.851-384.982L1213.569,1005.867z M1512.215,2609.333l-502.11-391.409l110.45-549.09l502.107,391.4L1512.215,2609.333z
						 M1674.967,2000.735l-493.875-384.986l604.326-164.108l493.867,385L1674.967,2000.735z M2374.674,1810.732l-493.865-384.987
						l604.316-164.103l493.867,385.004L2374.674,1810.732z M1913.301,815.872l493.871,384.987l-604.32,164.106l-493.871-385.009
						L1913.301,815.872z M438.286,1772.137l110.442-549.072l502.105,391.404l-110.446,549.096L438.286,1772.137z M992.672,2304.6
						l502.106,391.399l-110.402,548.879l-501.653-393.688L992.672,2304.6z M1572.309,2711.615l614.381-166.85l-109.949,546.602
						l-614.83,169.109L1572.309,2711.615z M2886.418,2354.771l-109.43,544.015l-614.844,169.092l109.877-546.274L2886.418,2354.771z
						 M2204.122,2458.102l-614.391,166.821l110.447-549.091l614.395-166.83L2204.122,2458.102z"/>
					<polygon points="3021.334,2084.991 2943.801,2069.393 2997.084,1804.521 3074.614,1820.11 					"/>
					<polygon points="362.423,2149.275 284.885,2133.688 338.164,1868.806 415.702,1884.404 					"/>
				</g>
			</g>
		</g>
	</g>
</g>
</svg>
