<?xml version="1.0" encoding="utf-8"?>
<!-- Generator: Adobe Illustrator 16.0.3, SVG Export Plug-In . SVG Version: 6.00 Build 0)  -->
<!DOCTYPE svg PUBLIC "-//W3C//DTD SVG 1.1//EN" "http://www.w3.org/Graphics/SVG/1.1/DTD/svg11.dtd">
<svg version="1.1" id="Capa_1" xmlns="http://www.w3.org/2000/svg" xmlns:xlink="http://www.w3.org/1999/xlink" x="0px" y="0px"
	 width="1716.667px" height="1316.761px" viewBox="0 0 1716.667 1316.761" enable-background="new 0 0 1716.667 1316.761"
	 xml:space="preserve">
<g>
	<defs>
		<rect id="SVGID_1_" x="0" width="1716.666" height="1316.761"/>
	</defs>
	<clipPath id="SVGID_2_">
		<use xlink:href="#SVGID_1_"  overflow="visible"/>
	</clipPath>
	<g opacity="0.2" clip-path="url(#SVGID_2_)">
		<g>
			<g>
				<path fill="#FFFFFF" d="M1070.403,415.527L797.935,303.548c-10.982-4.515-23.557,0.705-28.082,11.717L657.867,587.742
					c-4.524,10.992,0.732,23.566,11.725,28.08l104.978,43.15c10.982,4.514,23.564-0.725,28.09-11.736
					c4.523-10.992-0.734-23.584-11.727-28.098l-85.069-34.959l95.624-232.643l232.635,95.614l-95.615,232.645l-69.143-28.424
					c-10.975-4.516-23.564,0.762-28.08,11.754c-4.525,10.992,0.732,23.564,11.717,28.08L942.06,727.8
					c11.002,4.535,23.557-0.725,28.082-11.715l111.986-272.479C1086.653,432.615,1081.413,420.06,1070.403,415.527z"/>
			</g>
		</g>
		<g>
			<g>
				<g>
					<path fill="#FFFFFF" d="M1325.907,726.353l114.834,47.188c0.039,22.215,13.25,43.32,35.035,52.273
						c28.859,11.869,61.971-1.961,73.828-30.803c11.869-28.861-1.963-61.99-30.822-73.84c-21.803-8.975-46.035-3.238-61.695,12.555
						l-114.807-47.207l71.582-174.141l114.826,47.188c0.037,22.213,13.25,43.322,35.031,52.275
						c28.861,11.867,61.973-1.963,73.842-30.805c11.85-28.861-1.982-61.99-30.834-73.84c-21.805-8.973-46.035-3.238-61.693,12.535
						l-114.809-47.189l86.441-210.315c4.523-10.992-0.725-23.565-11.727-28.08L1419.422,199c-11.002-4.516-23.574,0.704-28.1,11.716
						c-4.516,10.992,0.734,23.584,11.734,28.101l65.602,26.956l-86.432,210.297l-0.012,0.02l-0.01,0.037l-87.936,213.938l0,0
						l-0.02,0.037l-87.918,213.896l-0.02,0.059v0.02l-86.421,210.258L271.354,765.578L357.777,555.3l0.028-0.059v-0.018
						l87.928-213.917l0,0l0.028-0.058l87.917-213.917l0.009-0.019l0.011-0.021L620.12-82.984l704.492,289.546
						c11.002,4.534,23.584-0.725,28.1-11.735c4.523-10.991-0.734-23.546-11.736-28.08l-46.318-19.03l47.205-114.835
						c22.223-0.058,43.303-13.26,52.266-35.054c11.85-28.842-1.98-61.971-30.824-73.819c-28.832-11.851-61.971,1.962-73.828,30.804
						c-8.965,21.832-3.238,46.064,12.563,61.704l-47.197,114.835l-174.158-71.572l47.197-114.854
						c22.222-0.038,43.312-13.26,52.265-35.054c11.857-28.842-1.963-61.952-30.814-73.801c-28.841-11.869-61.97,1.943-73.83,30.804
						c-8.973,21.813-3.219,46.064,12.557,61.704L1040.86,43.413L866.72-28.178l47.207-114.836
						c22.203-0.057,43.303-13.259,52.256-35.053c11.857-28.842-1.973-61.971-30.824-73.82c-28.842-11.849-61.971,1.962-73.83,30.806
						c-8.963,21.832-3.238,46.063,12.555,61.703L826.896-44.542l-210.343-86.45c-10.992-4.516-23.546,0.724-28.071,11.716
						L502.04,91.021L387.204,43.832c-0.027-22.213-13.25-43.32-35.053-52.293C323.318-20.31,290.19-6.479,278.34,22.363
						c-11.868,28.861,1.972,61.97,30.805,73.82c21.822,8.973,46.044,3.258,61.704-12.535l114.835,47.188l-71.582,174.159
						l-114.845-47.188c-0.038-22.212-13.25-43.339-35.043-52.293c-28.843-11.851-61.961,1.963-73.83,30.824
						c-11.859,28.86,1.98,61.988,30.813,73.839c21.822,8.973,46.055,3.22,61.704-12.556l114.826,47.207L326.156,518.97
						l-114.845-47.207c-0.028-22.213-13.25-43.303-35.043-52.256c-28.842-11.867-61.971,1.963-73.82,30.805
						c-11.858,28.842,1.972,61.971,30.805,73.84c21.822,8.953,46.045,3.238,61.704-12.555l114.826,47.207l-86.44,210.314
						c-4.516,10.992,0.715,23.566,11.707,28.08l210.307,86.432l-47.197,114.838c-22.231,0.057-43.32,13.258-52.284,35.053
						c-11.85,28.842,1.981,61.971,30.823,73.82c28.833,11.848,61.971-1.963,73.83-30.807c8.963-21.832,3.238-46.063-12.554-61.723
						l47.188-114.816l174.159,71.592l-47.197,114.816c-22.222,0.057-43.32,13.26-52.265,35.033
						c-11.859,28.861,1.962,61.99,30.823,73.857c28.842,11.85,61.952-1.98,73.811-30.844c8.963-21.813,3.248-46.043-12.544-61.684
						l47.197-114.816l174.138,71.572l-47.197,114.834c-22.211,0.059-43.311,13.26-52.264,35.035
						c-11.859,28.842,1.953,61.971,30.824,73.838c28.842,11.852,61.971-1.98,73.83-30.822c8.953-21.813,3.219-46.064-12.564-61.705
						l47.189-114.816l210.326,86.451c11,4.516,23.572-0.742,28.097-11.754l86.432-210.277l114.826,47.188
						c0.049,22.232,13.25,43.34,35.053,52.293c28.844,11.852,61.973-1.963,73.83-30.822c11.859-28.844-1.98-61.973-30.822-73.82
						c-21.814-8.973-46.035-3.238-61.695,12.555l-114.826-47.207l71.582-174.158L1325.907,726.353z M1502.407,761.005
						c6.916,2.838,10.211,10.744,7.383,17.641c-2.828,6.877-10.744,10.191-17.66,7.354c-6.867-2.818-10.162-10.742-7.334-17.641
						C1487.625,761.462,1495.54,758.185,1502.407,761.005z M1590.374,546.994c6.914,2.857,10.191,10.764,7.361,17.66
						c-2.828,6.896-10.744,10.211-17.648,7.371c-6.869-2.838-10.174-10.762-7.346-17.641
						C1575.571,547.49,1583.495,544.173,1590.374,546.994z M1346.938-36.177c6.896,2.838,10.191,10.764,7.363,17.641
						c-2.82,6.858-10.688,10.174-17.564,7.393c0,0-0.029-0.02-0.047-0.02c-0.029-0.019-0.076-0.019-0.115-0.037
						c-6.83-2.857-10.125-10.744-7.297-17.622S1340.032-39.015,1346.938-36.177z M1132.964-124.112
						c6.886,2.818,10.201,10.764,7.373,17.641c-2.82,6.858-10.697,10.173-17.544,7.393c-0.021,0-0.049-0.02-0.066-0.02
						c-0.039-0.02-0.086-0.038-0.125-0.057c-6.83-2.857-10.105-10.726-7.275-17.604
						C1118.163-123.637,1126.077-126.952,1132.964-124.112z M918.981-212.068c6.895,2.839,10.189,10.764,7.371,17.641
						c-2.818,6.858-10.688,10.173-17.535,7.411c-0.029-0.019-0.059-0.038-0.066-0.038c-0.047-0.019-0.086-0.038-0.115-0.038
						c-6.848-2.856-10.104-10.725-7.275-17.622C904.179-211.573,912.085-214.906,918.981-212.068z M325.504,56.37
						c-6.868-2.819-10.173-10.745-7.344-17.622c2.839-6.916,10.754-10.229,17.631-7.392c6.887,2.819,10.202,10.764,7.363,17.66
						C340.326,55.895,332.419,59.209,325.504,56.37z M237.558,270.363c-6.877-2.819-10.173-10.764-7.344-17.641
						c2.838-6.896,10.744-10.191,17.622-7.372c6.887,2.838,10.211,10.744,7.373,17.641
						C252.379,269.868,244.474,273.202,237.558,270.363z M149.613,484.318c-6.868-2.82-10.184-10.725-7.345-17.621
						c2.829-6.896,10.755-10.211,17.632-7.393c6.887,2.818,10.191,10.783,7.362,17.66
						C164.424,483.861,156.528,487.156,149.613,484.318z M393.057,1067.527c-6.896-2.84-10.182-10.764-7.344-17.66
						c2.819-6.857,10.668-10.152,17.545-7.373c0.009,0,0.029,0.02,0.067,0.02c0.009,0.02,0.057,0.039,0.057,0.039
						c6.858,2.855,10.145,10.725,7.315,17.621C407.87,1067.031,399.954,1070.345,393.057,1067.527z M607.041,1155.462
						c-6.887-2.82-10.182-10.744-7.354-17.641c2.82-6.857,10.679-10.174,17.536-7.393c0.028,0.02,0.038,0.02,0.058,0.02
						c0.027,0.02,0.065,0.037,0.095,0.059c6.849,2.838,10.135,10.725,7.315,17.582
						C621.862,1154.986,613.927,1158.3,607.041,1155.462z M821.005,1243.419c-6.896-2.838-10.203-10.783-7.373-17.66
						c2.818-6.857,10.705-10.154,17.574-7.373c0.018,0,0.027,0.02,0.037,0.02c0.039,0.02,0.076,0.02,0.104,0.039
						c6.859,2.857,10.125,10.725,7.307,17.604C835.825,1242.923,827.911,1246.238,821.005,1243.419z M1414.481,974.941
						c6.914,2.857,10.191,10.783,7.361,17.66c-2.838,6.916-10.744,10.211-17.648,7.373c-6.867-2.82-10.184-10.746-7.346-17.643
						C1399.678,975.455,1407.604,972.123,1414.481,974.941z"/>
				</g>
			</g>
			<g>
				<g>
					<path fill="#FFFFFF" d="M1412.213,272.859L655.257-38.271c-10.982-4.515-23.564,0.743-28.081,11.735L399.868,526.496
						c-4.516,10.992,0.743,23.564,11.726,28.08c11.002,4.533,23.584-0.705,28.101-11.717L658.81,9.754l717.112,294.729
						l-294.738,717.113L364.073,726.867l43.387-105.578c4.515-10.992-0.733-23.584-11.735-28.098
						c-10.981-4.518-23.564,0.742-28.089,11.732l-51.568,125.484c-4.516,10.992,0.732,23.586,11.716,28.1l756.949,311.111
						c10.99,4.518,23.572-0.742,28.09-11.732l311.109-756.948C1428.444,289.947,1423.196,277.374,1412.213,272.859z"/>
				</g>
			</g>
			<g>
				<g>
					<path fill="#FFFFFF" d="M746.242,116.074l-32.052-13.183c-11.012-4.516-23.565,0.724-28.091,11.734l-13.173,32.042
						c-4.515,10.992,0.725,23.548,11.735,28.081l32.052,13.163c10.983,4.516,23.564-0.705,28.09-11.716l13.164-32.043
						C762.491,133.144,757.224,120.589,746.242,116.074z"/>
				</g>
			</g>
			<g>
				<g>
					<path fill="#FFFFFF" d="M851.2,159.204l-32.043-13.163c-11.012-4.534-23.584,0.704-28.109,11.716L777.884,189.8
						c-4.523,10.991,0.734,23.564,11.736,28.08l32.051,13.184c11.002,4.515,23.557-0.725,28.072-11.716l13.172-32.043
						C867.44,176.294,862.202,163.738,851.2,159.204z"/>
				</g>
			</g>
			<g>
				<g>
					<path fill="#FFFFFF" d="M956.157,202.354l-32.051-13.183c-10.984-4.517-23.566,0.724-28.092,11.733l-13.174,32.043
						c-4.514,10.992,0.754,23.565,11.736,28.08l32.051,13.164c11.002,4.515,23.576-0.705,28.102-11.697l13.162-32.042
						C972.417,219.441,967.159,206.868,956.157,202.354z"/>
				</g>
			</g>
			<g>
				<g>
					<path fill="#FFFFFF" d="M1061.136,245.483l-32.053-13.164c-11.012-4.515-23.564,0.725-28.09,11.735l-13.164,32.043
						c-4.525,10.991,0.715,23.546,11.717,28.061l32.053,13.185c10.99,4.515,23.574-0.726,28.09-11.718l13.172-32.042
						C1077.386,262.571,1072.118,250.018,1061.136,245.483z"/>
				</g>
			</g>
			<g>
				<g>
					<path fill="#FFFFFF" d="M1166.073,288.633l-32.042-13.185c-10.992-4.515-23.545,0.726-28.07,11.735l-13.174,32.043
						c-4.514,10.992,0.725,23.564,11.717,28.08l32.042,13.164c11.012,4.534,23.594-0.705,28.119-11.697l13.162-32.042
						C1182.352,305.721,1177.084,293.147,1166.073,288.633z"/>
				</g>
			</g>
			<g>
				<g>
					<path fill="#FFFFFF" d="M1271.069,331.781l-32.07-13.183c-10.992-4.516-23.566,0.724-28.09,11.734l-13.164,32.043
						c-4.525,10.993,0.732,23.547,11.725,28.061l32.063,13.184c11.002,4.516,23.566-0.705,28.082-11.717l13.172-32.042
						C1287.311,348.851,1282.063,336.296,1271.069,331.781z"/>
				</g>
			</g>
			<g>
				<g>
					<path fill="#FFFFFF" d="M530.535,640.892l-32.052-13.182c-11.012-4.535-23.575,0.742-28.091,11.734l-13.173,32.043
						c-4.524,11.01,0.714,23.564,11.726,28.08l32.052,13.182c10.992,4.516,23.564-0.723,28.1-11.734l13.164-32.043
						C546.785,657.982,541.517,645.408,530.535,640.892z"/>
				</g>
			</g>
			<g>
				<g>
					<path fill="#FFFFFF" d="M635.501,684.023l-32.071-13.184c-10.981-4.516-23.574,0.744-28.099,11.734l-13.164,32.043
						c-4.524,11.012,0.743,23.584,11.726,28.1l32.071,13.164c10.992,4.533,23.546-0.705,28.071-11.734l13.173-32.023
						C651.723,701.111,646.495,688.539,635.501,684.023z"/>
				</g>
			</g>
			<g>
				<g>
					<path fill="#FFFFFF" d="M740.451,727.171l-32.054-13.184c-10.981-4.514-23.574,0.725-28.09,11.736l-13.173,32.043
						c-4.523,11.01,0.743,23.563,11.726,28.08l32.052,13.182c11.011,4.516,23.584-0.705,28.108-11.734l13.164-32.043
						C756.709,744.259,751.453,731.687,740.451,727.171z"/>
				</g>
			</g>
			<g>
				<g>
					<path fill="#FFFFFF" d="M845.427,770.302l-32.051-13.164c-11.002-4.533-23.564,0.725-28.09,11.734l-13.164,32.043
						c-4.535,11.012,0.713,23.564,11.715,28.08l32.053,13.184c10.982,4.516,23.566-0.725,28.092-11.734l13.172-32.043
						C861.667,787.41,856.409,774.818,845.427,770.302z"/>
				</g>
			</g>
			<g>
				<g>
					<path fill="#FFFFFF" d="M950.366,813.451l-32.043-13.182c-10.992-4.516-23.557,0.742-28.07,11.734l-13.174,32.043
						c-4.523,11.012,0.715,23.564,11.707,28.1l32.043,13.164c11.02,4.514,23.604-0.705,28.127-11.717l13.164-32.043
						C966.646,830.558,961.388,817.966,950.366,813.451z"/>
				</g>
			</g>
			<g>
				<g>
					<path fill="#FFFFFF" d="M1055.362,856.601l-32.07-13.184c-10.982-4.516-23.564,0.725-28.09,11.734l-13.164,32.043
						c-4.525,11.01,0.732,23.564,11.715,28.08l32.072,13.184c10.992,4.516,23.555-0.725,28.08-11.734l13.174-32.043
						C1071.593,873.689,1066.354,861.115,1055.362,856.601z"/>
				</g>
			</g>
			<g>
				<g>
					<path fill="#FFFFFF" d="M703.112,221.022l-32.053-13.184c-11.011-4.533-23.584,0.743-28.108,11.755l-13.173,32.043
						c-4.516,10.991,0.724,23.547,11.734,28.079l32.053,13.164c10.991,4.516,23.574-0.705,28.09-11.696l13.173-32.042
						C719.352,238.13,714.094,225.538,703.112,221.022z"/>
				</g>
			</g>
			<g>
				<g>
					<path fill="#FFFFFF" d="M659.962,325.99l-32.052-13.183c-11.011-4.516-23.575,0.743-28.089,11.734l-13.175,32.042
						c-4.523,11.013,0.705,23.585,11.717,28.119l32.052,13.164c10.992,4.516,23.575-0.725,28.099-11.734l13.173-32.043
						C676.204,343.098,670.946,330.505,659.962,325.99z"/>
				</g>
			</g>
			<g>
				<g>
					<path fill="#FFFFFF" d="M616.813,430.958l-32.041-13.164c-11.021-4.533-23.575,0.725-28.101,11.717l-13.173,32.063
						c-4.515,10.992,0.724,23.545,11.735,28.08l32.043,13.164c10.991,4.514,23.574-0.725,28.099-11.717l13.173-32.043
						C633.063,448.066,627.805,435.472,616.813,430.958z"/>
				</g>
			</g>
			<g>
				<g>
					<path fill="#FFFFFF" d="M573.673,535.925l-32.052-13.184c-11.011-4.516-23.565,0.725-28.09,11.717l-13.164,32.043
						c-4.534,11.029,0.705,23.584,11.716,28.117l32.052,13.184c10.982,4.516,23.565-0.725,28.101-11.754l13.173-32.043
						C589.923,553.013,584.667,540.441,573.673,535.925z"/>
				</g>
			</g>
			<g>
				<g>
					<path fill="#FFFFFF" d="M1227.93,436.73l-32.07-13.184c-10.982-4.516-23.566,0.742-28.09,11.756l-13.174,32.041
						c-4.516,10.992,0.742,23.564,11.727,28.08l32.07,13.164c10.992,4.533,23.557-0.705,28.08-11.695l13.164-32.043
						C1244.161,453.837,1238.922,441.246,1227.93,436.73z"/>
				</g>
			</g>
			<g>
				<g>
					<path fill="#FFFFFF" d="M1184.79,541.697l-32.07-13.182c-10.982-4.516-23.574,0.742-28.089,11.734l-13.174,32.043
						c-4.523,11.012,0.734,23.584,11.717,28.1l32.07,13.182c10.992,4.518,23.564-0.723,28.09-11.732l13.174-32.063
						C1201.022,558.804,1195.782,546.212,1184.79,541.697z"/>
				</g>
			</g>
			<g>
				<g>
					<path fill="#FFFFFF" d="M1141.641,646.666l-32.07-13.184c-10.982-4.514-23.564,0.744-28.08,11.736l-13.174,32.041
						c-4.523,11.012,0.732,23.586,11.717,28.1l32.07,13.164c10.992,4.535,23.564-0.725,28.08-11.715l13.174-32.043
						C1157.881,663.773,1152.633,651.179,1141.641,646.666z"/>
				</g>
			</g>
			<g>
				<g>
					<path fill="#FFFFFF" d="M1098.503,751.632l-32.072-13.184c-10.982-4.514-23.564,0.725-28.08,11.717l-13.174,32.043
						c-4.533,11.029,0.725,23.604,11.717,28.117l32.07,13.184c10.992,4.516,23.557-0.725,28.09-11.754l13.174-32.043
						C1114.743,768.72,1109.495,756.148,1098.503,751.632z"/>
				</g>
			</g>
		</g>
	</g>
</g>
</svg>
