<svg xmlns="http://www.w3.org/2000/svg" xmlns:xlink="http://www.w3.org/1999/xlink" version="1.1" x="0px" y="0px" viewBox="0 0 100 125" enable-background="new 0 0 100 100" xml:space="preserve"><path d="M90.98,72.424c1.104,0,2-0.896,2-2s-0.896-2-2-2h-4.324v-0.108c0-1.948-1.584-3.533-3.531-3.533h-0.107v-4.321  c0-1.104-0.896-2-2-2s-2,0.896-2,2v4.321h-1.365v-4.321c0-1.104-0.896-2-2-2s-2,0.896-2,2v4.321h-1.365v-4.321c0-1.104-0.896-2-2-2  s-2,0.896-2,2v4.321H68.18c-1.948,0-3.533,1.585-3.533,3.533v0.108h-4.322c-1.104,0-2,0.896-2,2s0.896,2,2,2h4.322v1.365h-4.322  c-1.104,0-2,0.896-2,2s0.896,2,2,2h4.322v1.364h-4.322c-1.104,0-2,0.896-2,2s0.896,2,2,2h4.322v0.106  c0,1.948,1.585,3.533,3.533,3.533h0.107v4.323c0,1.104,0.896,2,2,2s2-0.896,2-2v-4.323h1.365v4.323c0,1.104,0.896,2,2,2s2-0.896,2-2  v-4.323h1.365v4.323c0,1.104,0.896,2,2,2s2-0.896,2-2v-4.323h0.107c1.947,0,3.531-1.585,3.531-3.533v-0.106h4.324  c1.104,0,2-0.896,2-2s-0.896-2-2-2h-4.324v-1.364h4.324c1.104,0,2-0.896,2-2s-0.896-2-2-2h-4.324v-1.365H90.98z M82.656,82.793  h-14.01V68.782h14.01V82.793z"/><path d="M95.041,52.303h-8.043v-0.356c0-3.731-1.818-7.037-4.606-9.106l4.85-14.906c1.463-0.673,2.681-1.83,3.426-3.344  c0.847-1.718,0.973-3.664,0.355-5.477c-0.231-0.68-0.557-1.311-0.964-1.878c-0.678-0.946-1.584-1.716-2.657-2.245L60.989,1.984  c-1.167-0.799-2.561-1.257-4.047-1.257c-0.028,0-0.056,0.004-0.085,0.005c-0.028,0-0.056-0.005-0.084-0.005l0,0  c-0.001,0-0.001,0-0.001,0c-1.482,0-2.873,0.457-4.04,1.253L26.315,14.99c-2.934,1.445-4.437,4.64-3.883,7.709l-6.924,3.568  L7.871,22.86c-0.037-0.016-0.074-0.023-0.111-0.037c-0.072-0.027-0.143-0.052-0.216-0.071c-0.054-0.014-0.107-0.022-0.161-0.031  c-0.075-0.013-0.15-0.023-0.226-0.027c-0.053-0.002-0.105-0.001-0.157,0c-0.077,0.002-0.153,0.007-0.229,0.018  c-0.05,0.007-0.098,0.018-0.147,0.029c-0.077,0.017-0.151,0.036-0.226,0.062c-0.048,0.017-0.094,0.037-0.14,0.057  c-0.07,0.03-0.138,0.063-0.204,0.101c-0.05,0.029-0.097,0.062-0.144,0.095c-0.056,0.04-0.111,0.079-0.163,0.125  c-0.053,0.046-0.101,0.097-0.149,0.149c-0.028,0.03-0.061,0.054-0.087,0.086l-4.192,5.109c-0.701,0.854-0.577,2.114,0.277,2.814  c0.372,0.306,0.821,0.454,1.268,0.454c0.578,0,1.152-0.25,1.547-0.731l3.225-3.93l5.391,2.405l-2.112,5.514l-5.059-0.499  c-1.1-0.108-2.078,0.695-2.187,1.794c-0.108,1.1,0.695,2.078,1.794,2.187l6.577,0.648c0.061,0.006,0.121,0.008,0.181,0.009  c0.005,0,0.01,0.001,0.015,0.001c0.001,0,0.002,0,0.004,0c0.182,0,0.356-0.033,0.525-0.079c0.035-0.01,0.068-0.019,0.102-0.03  c0.164-0.055,0.319-0.127,0.462-0.221c0.025-0.017,0.047-0.037,0.072-0.054c0.133-0.096,0.254-0.206,0.36-0.332  c0.014-0.017,0.029-0.03,0.042-0.046c0.112-0.142,0.2-0.302,0.271-0.473c0.007-0.018,0.021-0.031,0.028-0.05l3.062-7.995l7.043-3.63  c1.335,1.456,3.226,2.31,5.278,2.311c0,0,0,0,0,0c1.104,0,2.167-0.249,3.163-0.739l24.209-11.921L77.92,26.306L73.179,40.88  c-5.068,1.133-8.872,5.66-8.872,11.066v0.356h-8.043c-2.259,0-4.096,1.838-4.096,4.097v17.39h-11.66  c-0.809-2.117-2.855-3.627-5.252-3.627c-3.103,0-5.627,2.524-5.627,5.627c0,2.397,1.51,4.443,3.627,5.252v3.316  c-1.494,0.57-2.682,1.758-3.253,3.252h-3.316c-0.571-1.494-1.758-2.682-3.252-3.252v-3.316c2.116-0.809,3.626-2.854,3.626-5.252  c0-3.103-2.524-5.627-5.626-5.627c-2.397,0-4.443,1.51-5.252,3.627h-3.317c-0.571-1.494-1.758-2.682-3.252-3.253V67.22  c2.116-0.809,3.626-2.854,3.626-5.252c0-3.103-2.524-5.627-5.626-5.627s-5.626,2.524-5.626,5.627c0,2.397,1.51,4.443,3.626,5.252  v3.316c-2.116,0.81-3.626,2.855-3.626,5.253c0,3.103,2.524,5.626,5.626,5.626c2.397,0,4.443-1.51,5.252-3.626h3.317  c0.571,1.494,1.758,2.682,3.252,3.252v3.316c-2.116,0.809-3.626,2.854-3.626,5.252c0,3.103,2.524,5.626,5.626,5.626  c2.397,0,4.443-1.51,5.252-3.626h3.316c0.809,2.116,2.855,3.626,5.253,3.626c3.102,0,5.626-2.523,5.626-5.626  c0-2.397-1.51-4.443-3.626-5.252v-3.316c1.494-0.57,2.681-1.758,3.252-3.252h11.66v17.389c0,2.259,1.837,4.096,4.096,4.096h38.777  c2.259,0,4.096-1.837,4.096-4.096V56.399C99.137,54.141,97.3,52.303,95.041,52.303z M35.256,74.162c0.896,0,1.626,0.729,1.626,1.627  c0,0.896-0.729,1.626-1.626,1.626c-0.897,0-1.627-0.729-1.627-1.626C33.629,74.892,34.359,74.162,35.256,74.162z M21.435,74.162  c0.896,0,1.626,0.729,1.626,1.627c0,0.896-0.729,1.626-1.626,1.626s-1.626-0.729-1.626-1.626  C19.809,74.892,20.538,74.162,21.435,74.162z M7.614,60.341c0.896,0,1.626,0.729,1.626,1.627c0,0.896-0.729,1.626-1.626,1.626  s-1.626-0.729-1.626-1.626C5.988,61.07,6.717,60.341,7.614,60.341z M7.614,77.415c-0.896,0-1.626-0.729-1.626-1.626  c0-0.897,0.729-1.627,1.626-1.627s1.626,0.729,1.626,1.627C9.24,76.686,8.51,77.415,7.614,77.415z M21.435,91.235  c-0.896,0-1.626-0.729-1.626-1.626s0.729-1.626,1.626-1.626s1.626,0.729,1.626,1.626S22.331,91.235,21.435,91.235z M35.256,91.235  c-0.897,0-1.627-0.729-1.627-1.626s0.73-1.626,1.627-1.626c0.896,0,1.626,0.729,1.626,1.626S36.152,91.235,35.256,91.235z   M77.428,40.753l4.127-12.69c0.427,0.173,0.863,0.304,1.311,0.391l-4.097,12.592C78.331,40.92,77.884,40.825,77.428,40.753z   M55.375,10.746l-0.006-0.003c-1.568-0.772-2.216-2.677-1.444-4.245c0.208-0.423,0.501-0.781,0.851-1.064l0.77-0.379  c0.415-0.205,0.857-0.305,1.313-0.317c0.142,0.004,0.28,0.025,0.419,0.048c0.307,0.05,0.607,0.129,0.893,0.27l0.004,0.002  c1.565,0.773,2.211,2.676,1.441,4.243c-0.538,1.093-1.63,1.771-2.85,1.771C56.281,11.07,55.813,10.961,55.375,10.746z M64.108,7.979  l15.763,7.761c-0.854,0.657-1.57,1.501-2.069,2.515c-0.495,1.004-0.735,2.085-0.734,3.172l-15.825-7.792  C63.049,12.282,64.08,10.171,64.108,7.979z M81.232,22.443c-0.272-0.802-0.217-1.662,0.157-2.421  c0.538-1.093,1.63-1.771,2.849-1.771c0.485,0,0.955,0.11,1.396,0.328c0.76,0.374,1.328,1.021,1.602,1.823  c0.272,0.802,0.217,1.662-0.157,2.421c-0.398,0.809-1.101,1.389-1.934,1.637c-0.03,0.008-0.062,0.015-0.092,0.024  c-0.265,0.07-0.54,0.11-0.823,0.11c-0.485,0-0.955-0.11-1.396-0.328l-0.005-0.002C82.072,23.891,81.506,23.244,81.232,22.443z   M30.882,24.268c-0.441,0.217-0.91,0.327-1.396,0.327c0,0,0,0,0,0c-1.219,0-2.311-0.679-2.849-1.771  c-0.772-1.568-0.124-3.473,1.445-4.245l21.524-10.6c0.029,2.192,1.06,4.304,2.867,5.657L30.882,24.268z M68.307,51.946  c0-4.051,3.295-7.346,7.346-7.346s7.346,3.295,7.346,7.346v0.356H68.307V51.946z M95.137,95.178c0,0.053-0.043,0.096-0.096,0.096  H56.264c-0.053,0-0.096-0.043-0.096-0.096V56.399c0-0.055,0.042-0.097,0.096-0.097h38.777c0.054,0,0.096,0.042,0.096,0.097V95.178z"/><path d="M21.435,67.594c3.102,0,5.626-2.523,5.626-5.626s-2.524-5.627-5.626-5.627s-5.626,2.524-5.626,5.627  S18.333,67.594,21.435,67.594z M21.435,60.341c0.896,0,1.626,0.729,1.626,1.627c0,0.896-0.729,1.626-1.626,1.626  s-1.626-0.729-1.626-1.626C19.809,61.07,20.538,60.341,21.435,60.341z"/><path d="M35.256,67.594c3.102,0,5.626-2.523,5.626-5.626s-2.524-5.627-5.626-5.627c-3.103,0-5.627,2.524-5.627,5.627  S32.153,67.594,35.256,67.594z M35.256,60.341c0.896,0,1.626,0.729,1.626,1.627c0,0.896-0.729,1.626-1.626,1.626  c-0.897,0-1.627-0.729-1.627-1.626C33.629,61.07,34.359,60.341,35.256,60.341z"/><path d="M7.614,83.983c-3.102,0-5.626,2.523-5.626,5.626s2.524,5.626,5.626,5.626s5.626-2.523,5.626-5.626  S10.716,83.983,7.614,83.983z M7.614,91.235c-0.896,0-1.626-0.729-1.626-1.626s0.729-1.626,1.626-1.626s1.626,0.729,1.626,1.626  S8.51,91.235,7.614,91.235z"/><text x="0" y="115" fill="#000000" font-size="5px" font-weight="bold" font-family="'Helvetica Neue', Helvetica, Arial-Unicode, Arial, Sans-serif">Created by Srinivas Agra</text><text x="0" y="120" fill="#000000" font-size="5px" font-weight="bold" font-family="'Helvetica Neue', Helvetica, Arial-Unicode, Arial, Sans-serif">from the Noun Project</text></svg>