<?xml version="1.0" encoding="utf-8"?>
<!-- Generator: Adobe Illustrator 23.0.3, SVG Export Plug-In . SVG Version: 6.00 Build 0)  -->
<svg version="1.1" id="Capa_1" xmlns="http://www.w3.org/2000/svg" xmlns:xlink="http://www.w3.org/1999/xlink" x="0px" y="0px"
	 viewBox="0 0 1258.98 1104.59" style="enable-background:new 0 0 1258.98 1104.59;" xml:space="preserve">
<style type="text/css">
	.st0{fill:#0A1134;}
	.st1{fill:none;stroke:#FFFFFF;stroke-width:5;stroke-miterlimit:10;}
	.st2{fill:#F4F4F4;stroke:#0A1134;stroke-width:8;stroke-miterlimit:10;}
	.st3{font-family:'Impact';}
	.st4{font-size:400.3752px;}
</style>
<g>
	<g>
		<g>
			<g>
				<path class="st0" d="M124.9,367.31l473.74,494c14.64,15.22,62.45,15.22,77.09,0l473.73-494c6.68-6.96,5.94-15.22-1.9-21.85
					c-7.88-6.6-21.71-10.64-36.65-10.64H163.45c-14.94,0-28.77,4.04-36.65,10.64C118.96,352.08,118.23,360.35,124.9,367.31z"/>
			</g>
		</g>
		<path class="st1" d="M637.18,872.72c0-19.01,0-39.01,0-57.77c28.76,0,57.52,0,85.95-0.33"/>
		<path class="st1" d="M589.09,852.01c1.83-24.56-1.92-49.56,0.58-74.57c56.27,0,112.53,0,169.26,0.14"/>
		<path class="st1" d="M544.55,807.13c0.11-24.69,0.11-50.94,0.11-75.95c87.53,0,176.3,0,264.29-0.04"/>
		<path class="st1" d="M498.85,759.26c-0.46-25.61-0.45-51.23-0.45-76.84c45.79,0,91.58,0,137.37,0c71.44,0,142.71,0,213.81,0.03"/>
		<path class="st1" d="M453.2,711.71c1.43-26.79-2.32-54.3,1.43-80.56c148.8-3.75,296.34,0,444.82-1.19"/>
		<path class="st1" d="M404.57,660.89c0.04-25.99,0.04-52.25,0.04-78.51c181.31,0,361.36,0,542.24-0.13"/>
		<path class="st1" d="M351.95,606.64c0.14-21.75,0.14-43.01,0.14-64.26c210.06,0,421.38,0,631.67-0.59"/>
		<path class="st1" d="M302.83,556.7c1.75-20.58-2-40.59,1.75-60.6c241.32,0,481.4,0,722.3,0.16"/>
		<path class="st1" d="M257.98,508.01c0.34-16.91-0.91-34.41,0.34-51.92c270.08,0,540.16,0,809.65-0.32"/>
		<path class="st1" d="M207.63,455.78c-0.58-13.43-0.58-27.19-0.58-40.94c300.09,0,600.18,0,900.5,0.08"/>
		<path class="st1" d="M127.36,373.82c338.52-0.25,677.37-0.25,1016.66,0.01"/>
	</g>
	<g>
		<text transform="matrix(0.8613 0 0 1 230.9125 587.3348)" class="st2 st3 st4">c</text>
		<text transform="matrix(0.8784 0 0 1 704.0209 588.4862)" class="st2 st3 st4">r</text>
		<text transform="matrix(0.8173 0 0 1 973.9086 588.4862)" class="st2 st3 st4">f</text>
		<g>
			<text transform="matrix(0.8099 0 0 1 383.456 588.4862)" class="st2 st3 st4">a</text>
			<path class="st0" d="M473.78,468.07c-0.48-0.12-1.3,0-5.27,5.27c-6.69,8.88-12.11,16.08-15.32,27.77
				c-1.48,5.4-5.79,21.07,0.96,36.87c0.64,1.49,5.17,12.09,9.1,11.49c3.41-0.52,4.59-9.16,6.23-22.03
				C476.37,473.3,475.57,468.51,473.78,468.07z"/>
		</g>
		<g>
			<text transform="matrix(0.8705 0 0 1 535.225 588.4843)" class="st2 st3 st4">p</text>
			<path class="st0" d="M628.27,370.86c-5.1-0.03-9.48,26.29-11.12,41.27c-2.37,21.61-1,37.53,0,50.98
				c1.32,17.62,2.94,43.33,3.89,75.74c1.18,3.85,4.86,6.4,8.34,6.31c4.3-0.11,6.69-7.04,7.78-10.2c7.72-22.28-0.79-55.87,0-89.82
				c0.38-16.58,2.82-26.22,0-46.13C636.64,395.29,633.18,370.88,628.27,370.86z"/>
		</g>
		<g>
			<text transform="matrix(0.8179 0 0 1 819.2406 588.4862)" class="st2 st3 st4">o</text>
			<path class="st0" d="M902.94,368.62c-5.1-0.03-9.48,26.29-11.12,41.27c-2.37,21.61-1,37.53,0,50.98
				c1.32,17.62,2.94,43.33,3.89,75.74c1.18,3.85,4.86,6.4,8.34,6.31c4.3-0.11,6.69-7.04,7.78-10.2c7.72-22.28-0.79-55.87,0-89.82
				c0.38-16.58,2.82-26.22,0-46.13C911.31,393.06,907.85,368.65,902.94,368.62z"/>
		</g>
	</g>
</g>
</svg>
